<?xml version="1.0" encoding="UTF-8"?>
<svg width="273px" height="281px" viewBox="0 0 273 281" version="1.1" xmlns="http://www.w3.org/2000/svg" xmlns:xlink="http://www.w3.org/1999/xlink">
    <!-- Generator: Sketch 49.3 (51167) - http://www.bohemiancoding.com/sketch -->
    <title>Group</title>
    <desc>Created with Sketch.</desc>
    <defs></defs>
    <g id="Page-1" stroke="none" stroke-width="1" fill="none" fill-rule="evenodd">
        <g id="iPhone-8-Copy" transform="translate(-52.000000, -98.000000)">
            <g id="Group" transform="translate(52.000000, 98.000000)">
                <polygon id="Page-1" fill="#07A2AD" points="166.546547 0.815 30.3214804 44.9418109 0.533282019 184.995179 106.839895 280.815 243.049935 236.685821 272.852588 96.6351476"></polygon>
                <g id="apple-icloud" transform="translate(80.000000, 152.000000)" fill="#412E58" fill-rule="nonzero">
                    <path d="M133,64.4247788 C133,79.1216814 121.296,91 106.8655,91 L26.1345,91 C11.704,91 0,79.1216814 0,64.4247788 C0,51.2042773 9.5095,40.2654867 22.0115,38.2522124 C21.812,37.3126844 21.7455,36.3731563 21.7455,35.3665192 C21.7455,26.1054572 29.127,18.5221239 38.304,18.5221239 C42.3605,18.5221239 46.151,20.0656342 49.0105,22.5486726 C54.131,10.8045723 60.7145,0 79.2015,0 C101.612,0 112.1855,17.5825959 112.1855,36.1718289 C112.1855,36.9100295 112.1855,37.7153392 112.119,38.4535398 C124.0225,40.9365782 133,51.6069322 133,64.4247788 Z" id="Shape"></path>
                </g>
                <g id="airballoon" transform="translate(45.000000, 53.000000)" fill="#412E58" fill-rule="nonzero" stroke="#07A2AD">
                    <path d="M32.1875,128.181818 L32.1875,115.363636 L70.8125,115.363636 L70.8125,128.181818 C70.8125,135.261105 65.0481662,141 57.9375,141 L45.0625,141 C37.9518338,141 32.1875,135.261105 32.1875,128.181818 Z M51.5,0 C56.070625,0 60.448125,0.576818182 64.696875,1.66636364 C72.22875,11.7286364 77.25,30.1868182 77.25,51.2727273 C77.25,65.8854545 74.80375,79.2804545 70.8125,96.1363636 C70.8125,103.21565 65.0481662,108.954545 57.9375,108.954545 L45.0625,108.954545 C37.9518338,108.954545 32.1875,103.21565 32.1875,96.1363636 C28.19625,79.2804545 25.75,65.8854545 25.75,51.2727273 C25.75,30.1868182 30.77125,11.7286364 38.303125,1.66636364 C42.551875,0.576818182 46.929375,0 51.5,0 Z M103,44.8636364 C103,65.2445455 91.090625,95.6236364 73.77375,103.891364 C79.889375,92.2268182 83.6875,69.4104545 83.6875,51.2727273 C83.6875,33.135 79.889375,16.7277273 73.77375,5.06318182 C91.090625,13.3309091 103,24.4827273 103,44.8636364 Z M0,44.8636364 C0,24.4827273 11.909375,13.3309091 29.22625,5.06318182 C23.110625,16.7277273 19.3125,33.135 19.3125,51.2727273 C19.3125,69.4104545 23.110625,92.2268182 29.22625,103.891364 C11.909375,95.6236364 0,65.2445455 0,44.8636364 Z" id="Shape"></path>
                </g>
                <polygon id="Page-1" stroke="#412E58" stroke-width="10" points="75.7835432 245 13 136.044845 75.7835432 27 201.217497 27 264 136.044845 201.217497 245"></polygon>
            </g>
        </g>
    </g>
</svg>