<?xml version="1.0" encoding="UTF-8"?>
<svg width="273px" height="281px" viewBox="0 0 273 281" version="1.1" xmlns="http://www.w3.org/2000/svg" xmlns:xlink="http://www.w3.org/1999/xlink">
    <!-- Generator: Sketch 49.3 (51167) - http://www.bohemiancoding.com/sketch -->
    <title>Group 2</title>
    <desc>Created with Sketch.</desc>
    <defs></defs>
    <g id="Page-1" stroke="none" stroke-width="1" fill="none" fill-rule="evenodd">
        <g id="iPhone-8-Copy-2" transform="translate(-52.000000, -98.000000)">
            <g id="Group-2" transform="translate(52.000000, 98.000000)">
                <g id="Group">
                    <polygon id="Page-1" fill="#07A2AD" points="166.546547 0.815 30.3214804 44.9418109 0.533282019 184.995179 106.839895 280.815 243.049935 236.685821 272.852588 96.6351476"></polygon>
                    <polygon id="Page-1-Copy" stroke="#412E58" stroke-width="10" points="76.5334096 244 14 135.544639 76.5334096 27 201.467626 27 264 135.544639 201.467626 244"></polygon>
                </g>
                <g id="wifi-off" transform="translate(70.000000, 99.000000)" fill="#412E58" fill-rule="nonzero">
                    <path d="M7.9266055,0 L0,7.83166667 L9.10321101,16.8966667 C6.44036697,18.5 3.77752294,20.2883333 1.23853211,22.2 L12.3853211,37 C15.6674312,34.5333333 19.0733945,32.375 22.6651376,30.4016667 L36.4747706,44.1533333 C31.8922018,46.25 27.4954128,48.7783333 23.5321101,51.8 L34.6788991,66.6 C39.5091743,63.0233333 44.9587156,60.2483333 50.7798165,58.3983333 L66.5711009,74 C58.8302752,74.4316667 51.646789,77.0833333 45.8256881,81.4 L68.1192661,111 L83.353211,90.835 L103.665138,111 L111.46789,103.106667 L7.9266055,0 Z M68.1192661,0 C54.8050459,0 42.1100917,2.34333333 30.3440367,6.59833333 L45.1444954,21.3983333 C52.6376147,19.4866667 60.1926606,18.5 68.1192661,18.5 C89.0504587,18.5 108.37156,25.345 123.853211,37 L135,22.2 C116.360092,8.26333333 93.2614679,0 68.1192661,0 Z M68.1192661,37 C65.766055,37 63.4747706,37 61.1834862,37.3083333 L80.9380734,57.0416667 C88.4931193,58.7683333 95.5527523,62.0983333 101.559633,66.6 L112.706422,51.8 C100.321101,42.4883333 84.8394495,37 68.1192661,37 Z" id="Shape"></path>
                </g>
            </g>
        </g>
    </g>
</svg>