<?xml version="1.0" encoding="UTF-8"?>
<svg width="273px" height="281px" viewBox="0 0 273 281" version="1.1" xmlns="http://www.w3.org/2000/svg" xmlns:xlink="http://www.w3.org/1999/xlink">
    <!-- Generator: Sketch 49.3 (51167) - http://www.bohemiancoding.com/sketch -->
    <title>Group</title>
    <desc>Created with Sketch.</desc>
    <defs></defs>
    <g id="Page-1" stroke="none" stroke-width="1" fill="none" fill-rule="evenodd">
        <g id="iPhone-8-Copy-3" transform="translate(-64.000000, -111.000000)">
            <g id="Group" transform="translate(64.000000, 111.000000)">
                <polygon id="Page-1" fill="#07A2AD" points="166.546547 0.815 30.3214804 44.9418109 0.533282019 184.995179 106.839895 280.815 243.049935 236.685821 272.852588 96.6351476"></polygon>
                <g id="account-heart" transform="translate(62.000000, 155.000000)" fill="#412E58" fill-rule="nonzero">
                    <path d="M73.8181818,52.5 C59.5818182,52.5 31.6363636,59.325 31.6363636,73.5 L31.6363636,84 L116,84 L116,73.5 C116,59.325 88.0545455,52.5 73.8181818,52.5 Z M73.8181818,42 C85.4663693,42 94.9090909,32.5979797 94.9090909,21 C94.9090909,9.40202025 85.4663693,0 73.8181818,0 C62.1699944,0 52.7272727,9.40202025 52.7272727,21 C52.7272727,32.5979797 62.1699944,42 73.8181818,42 Z M21.0909091,57.75 L17.9272727,55.125 C7.38181818,45.15 0,38.85 0,30.975 C0,24.675 5.27272727,19.425 11.6,19.425 C15.2909091,19.425 18.9818182,21 21.0909091,23.625 C23.2,21 26.8909091,19.425 30.5818182,19.425 C36.9090909,19.425 42.1818182,24.15 42.1818182,30.975 C42.1818182,38.85 34.8,45.15 24.2545455,55.125 L21.0909091,57.75 Z" id="Shape"></path>
                </g>
                <polygon id="Page-1-Copy-2" stroke="#412E58" stroke-width="10" points="75.0207284 243.311739 12.5833582 135.104418 75.0207284 26.8080239 199.76307 26.8080239 262.199406 135.104418 199.76307 243.311739"></polygon>
            </g>
        </g>
    </g>
</svg>